<?xml version="1.0" encoding="utf-8"?>
<!-- Generator: Adobe Illustrator 24.3.0, SVG Export Plug-In . SVG Version: 6.00 Build 0)  -->
<svg version="1.1" id="mailFull" xmlns="http://www.w3.org/2000/svg" xmlns:xlink="http://www.w3.org/1999/xlink" x="0px" y="0px"
	 viewBox="0 0 41 30.7" style="enable-background:new 0 0 41 30.7;" xml:space="preserve">
<style type="text/css">
	.st0{fill:none;stroke:#FFFFFF;stroke-miterlimit:10;}
</style>
<path id="mail" class="st0" d="M37.6,0H3.4C1.5,0,0,1.5,0,3.4l0,0v23.9c0,1.9,1.5,3.4,3.4,3.4h34.1c1.9,0,3.4-1.5,3.4-3.4V3.4
	C41,1.5,39.4,0,37.6,0L37.6,0z M3.4,1.7h34.1c0.1,0,0.2,0,0.3,0.1C35,4.5,25.1,13.5,21.7,16.5c-0.3,0.3-0.8,0.5-1.2,0.5
	c-0.5,0-0.9-0.2-1.2-0.5C15.8,13.5,6,4.5,3.1,1.8C3.2,1.7,3.3,1.7,3.4,1.7z M1.7,27.3V3.4c0-0.2,0-0.3,0.1-0.5
	c2.3,2.1,9.1,8.3,13.5,12.4C10.9,19.1,4.1,25.6,1.8,27.8C1.7,27.6,1.7,27.5,1.7,27.3z M37.6,29H3.4C3.3,29,3.2,29,3,29
	c2.4-2.2,9.2-8.8,13.6-12.5l1.5,1.4c1.3,1.3,3.4,1.3,4.8,0l1.5-1.4c4.3,3.7,11.2,10.2,13.5,12.5C37.8,29,37.7,29,37.6,29z
	 M39.3,27.3c0,0.2,0,0.3-0.1,0.4c-2.3-2.2-9.1-8.7-13.5-12.5c4.4-4,11.3-10.3,13.5-12.4c0.1,0.2,0.1,0.3,0.1,0.5L39.3,27.3z"/>
</svg>
